<?xml version="1.0" standalone="no"?>
<!DOCTYPE svg PUBLIC "-//W3C//DTD SVG 20010904//EN"
 "http://www.w3.org/TR/2001/REC-SVG-20010904/DTD/svg10.dtd">
<svg version="1.0" xmlns="http://www.w3.org/2000/svg"
 width="900.000000pt" height="780.000000pt" viewBox="0 0 900.000000 780.000000"
 preserveAspectRatio="xMidYMid meet">

<g transform="translate(0.000000,780.000000) scale(0.100000,-0.100000)"
fill="#de0031" stroke="none">
<path d="M4445 7749 c-22 -4 -130 -39 -240 -79 -110 -39 -409 -146 -665 -237
-256 -90 -564 -200 -685 -243 -251 -89 -326 -116 -1070 -380 -297 -105 -601
-213 -675 -240 l-135 -48 3 -64 c5 -110 142 -1324 322 -2863 39 -330 97 -836
130 -1125 33 -289 62 -535 65 -546 5 -24 53 -57 190 -131 190 -104 898 -495
1055 -583 91 -51 214 -119 274 -152 60 -32 127 -69 150 -82 38 -22 486 -270
706 -391 235 -130 528 -290 562 -308 l36 -18 39 24 c21 14 175 100 343 192
419 230 1227 676 1485 820 72 40 263 145 425 235 608 335 675 373 687 384 15
14 52 271 148 1038 42 331 112 889 156 1238 226 1793 272 2172 281 2309 l2 44
-319 109 c-176 61 -556 190 -845 288 -937 318 -2272 775 -2360 807 -14 5 -43
6 -65 2z m50 -881 c10 -29 57 -136 105 -238 91 -192 590 -1261 1526 -3272 299
-642 552 -1184 562 -1205 11 -21 23 -48 26 -60 l7 -23 -379 0 -379 0 -239 550
-238 550 -977 0 -977 0 -218 -544 -217 -544 -111 -7 c-61 -3 -246 -5 -412 -3
l-301 3 1067 2370 c892 1982 1117 2473 1137 2475 1 0 9 -24 18 -52z"/>
<path d="M4435 5318 c-2 -7 -6 -29 -8 -48 -3 -19 -38 -109 -79 -200 -42 -91
-135 -309 -208 -485 -72 -176 -174 -418 -224 -537 l-93 -218 684 0 c375 0 683
2 683 5 0 25 -706 1476 -723 1487 -17 11 -27 10 -32 -4z"/>
</g>
</svg>
