<?xml version="1.0" standalone="no"?>
<!DOCTYPE svg PUBLIC "-//W3C//DTD SVG 20010904//EN"
 "http://www.w3.org/TR/2001/REC-SVG-20010904/DTD/svg10.dtd">
<svg version="1.0" xmlns="http://www.w3.org/2000/svg"
 width="1200.000000pt" height="956.000000pt" viewBox="0 0 1200.000000 956.000000"
 preserveAspectRatio="xMidYMid meet">

<g transform="translate(0.000000,956.000000) scale(0.100000,-0.100000)"
fill="#8812fc" stroke="none">
<path d="M2345 9549 c-486 -61 -892 -453 -995 -961 -20 -95 -21 -134 -20 -494
1 -753 -49 -1251 -175 -1729 -161 -614 -416 -997 -780 -1176 -93 -45 -266 -99
-320 -99 -57 0 -55 13 -55 -310 0 -323 -2 -310 55 -310 54 0 227 -54 320 -99
530 -260 828 -945 936 -2151 6 -69 13 -354 15 -635 5 -555 8 -599 64 -767 146
-436 524 -753 965 -807 64 -8 1117 -11 3655 -11 3044 0 3579 2 3660 14 435 66
787 365 939 798 59 168 62 212 65 757 3 496 10 628 46 946 75 643 243 1165
479 1490 71 97 198 224 287 285 134 93 303 159 450 178 l59 7 0 305 0 305 -59
7 c-146 19 -316 85 -448 177 -399 275 -665 892 -768 1776 -36 317 -43 449 -46
947 -3 546 -7 589 -66 756 -155 442 -522 747 -963 801 -110 13 -7192 13 -7300
0z m4190 -2228 c312 -47 525 -122 729 -258 287 -191 466 -476 517 -823 18
-127 7 -344 -24 -463 -94 -357 -370 -665 -708 -788 -45 -16 -105 -35 -133 -41
l-51 -11 112 -22 c152 -31 257 -66 389 -130 543 -264 791 -840 639 -1483 -58
-245 -169 -437 -357 -618 -250 -241 -598 -386 -1053 -439 -108 -13 -321 -15
-1282 -15 l-1153 0 0 2556 0 2555 1148 -4 c827 -3 1169 -7 1227 -16z"/>
<path d="M4990 5919 l0 -751 553 5 c595 5 658 9 845 63 182 52 341 152 428
268 102 135 138 250 138 441 0 92 -5 149 -17 195 -84 314 -340 489 -765 520
-70 5 -364 10 -654 10 l-528 0 0 -751z"/>
<path d="M4990 3720 l0 -821 693 4 c582 3 704 7 770 20 257 53 420 131 544
259 138 144 198 311 196 553 -1 235 -59 383 -203 527 -77 77 -100 93 -201 141
-119 57 -205 85 -349 113 -73 15 -182 18 -767 21 l-683 4 0 -821z"/>
</g>
</svg>
