<?xml version="1.0" standalone="no"?>
<!DOCTYPE svg PUBLIC "-//W3C//DTD SVG 20010904//EN"
 "http://www.w3.org/TR/2001/REC-SVG-20010904/DTD/svg10.dtd">
<svg version="1.0" xmlns="http://www.w3.org/2000/svg"
 width="400.000000pt" height="400.000000pt" viewBox="0 0 400.000000 400.000000"
 preserveAspectRatio="xMidYMid meet">

<g transform="translate(0.000000,400.000000) scale(0.100000,-0.100000)"
fill="#5720b2" stroke="none">
<path d="M0 2000 l0 -2000 2000 0 2000 0 0 2000 0 2000 -2000 0 -2000 0 0
-2000z m1550 751 c0 -275 4 -502 8 -505 5 -3 44 6 88 20 197 61 482 102 630
90 252 -19 429 -153 505 -381 23 -70 24 -74 27 -647 l3 -578 -180 0 -180 0 -3
558 c-3 504 -5 560 -20 588 -48 88 -130 113 -313 95 -246 -24 -487 -95 -783
-230 -73 -34 -135 -61 -138 -61 -2 0 -4 349 -4 775 l0 775 180 0 180 0 0 -499z
m1244 432 c-33 -172 -109 -332 -221 -470 l-34 -43 -180 0 -180 0 51 75 c28 42
71 115 95 163 46 91 115 284 115 321 0 21 3 21 184 21 l184 0 -14 -67z m-1390
-1902 c187 -165 196 -175 179 -191 -80 -74 -383 -340 -387 -340 -3 0 -6 160
-6 356 0 206 4 354 9 352 5 -1 97 -81 205 -177z"/>
</g>
</svg>
