<?xml version="1.0" standalone="no"?>
<!DOCTYPE svg PUBLIC "-//W3C//DTD SVG 20010904//EN"
 "http://www.w3.org/TR/2001/REC-SVG-20010904/DTD/svg10.dtd">
<svg version="1.0" xmlns="http://www.w3.org/2000/svg"
 width="290.000000pt" height="290.000000pt" viewBox="0 0 290.000000 290.000000"
 preserveAspectRatio="xMidYMid meet">

<g transform="translate(0.000000,290.000000) scale(0.100000,-0.100000)"
fill="#764abc" stroke="none">
<path d="M1312 2496 c-188 -46 -380 -221 -452 -414 -56 -146 -73 -240 -74
-397 -1 -212 38 -374 136 -568 36 -72 38 -81 27 -111 -36 -100 60 -216 169
-203 77 8 132 65 140 145 8 86 -54 159 -144 170 -45 5 -45 5 -83 81 -177 351
-140 805 84 1036 96 99 270 159 397 137 106 -19 184 -70 254 -168 57 -79 97
-169 119 -264 9 -41 18 -80 20 -86 3 -11 124 -48 133 -40 2 3 -3 48 -12 101
-69 408 -380 661 -714 581z"/>
<path d="M1265 1843 c-35 -9 -87 -54 -101 -89 -21 -50 -18 -106 9 -145 67 -99
179 -107 259 -17 l37 42 123 -12 c190 -18 327 -61 483 -153 159 -94 256 -194
330 -341 52 -103 69 -178 63 -270 -9 -117 -80 -230 -193 -308 -112 -76 -300
-88 -471 -30 l-56 20 -59 -46 c-32 -25 -59 -49 -59 -53 0 -16 188 -71 277 -81
211 -24 413 43 552 181 124 123 165 281 125 477 -17 83 -64 195 -112 264 -52
76 -165 190 -247 251 -187 137 -461 226 -700 227 -67 0 -72 2 -104 35 -43 45
-99 62 -156 48z"/>
<path d="M588 1443 c-169 -145 -258 -327 -258 -528 0 -336 226 -545 591 -545
186 0 420 73 591 185 134 89 291 263 362 403 16 32 33 52 44 52 28 0 81 37
102 72 13 22 20 51 20 84 0 157 -199 216 -287 84 -30 -44 -31 -121 -2 -169
l20 -33 -40 -68 c-102 -171 -343 -361 -552 -435 -126 -45 -291 -57 -407 -30
-211 50 -331 212 -320 436 4 79 8 97 46 172 30 61 63 107 117 163 41 44 75 84
75 89 0 6 -8 36 -18 68 l-17 58 -67 -58z"/>
</g>
</svg>
