<?xml version="1.0" standalone="no"?>
<!DOCTYPE svg PUBLIC "-//W3C//DTD SVG 20010904//EN"
 "http://www.w3.org/TR/2001/REC-SVG-20010904/DTD/svg10.dtd">
<svg version="1.0" xmlns="http://www.w3.org/2000/svg"
 width="300.000000pt" height="303.000000pt" viewBox="0 0 300.000000 303.000000"
 preserveAspectRatio="xMidYMid meet">

<g transform="translate(0.000000,303.000000) scale(0.100000,-0.100000)"
fill="#000000" stroke="none">
<path d="M1365 2984 c-224 -32 -377 -78 -532 -159 -398 -210 -691 -606 -769
-1040 -25 -137 -25 -405 0 -530 92 -463 380 -846 794 -1054 367 -184 835 -199
1221 -39 366 153 659 451 802 816 137 352 141 703 12 1052 -75 202 -186 373
-342 530 -211 210 -482 354 -766 405 -86 16 -357 28 -420 19z m400 -232 c243
-59 449 -170 622 -335 264 -253 382 -535 383 -915 0 -336 -135 -641 -397 -893
-232 -224 -473 -325 -818 -344 -471 -26 -938 249 -1163 685 -97 186 -132 340
-132 573 0 234 44 409 151 602 185 335 509 567 894 639 109 21 350 14 460 -12z"/>
<path d="M1965 2263 c-190 -154 -805 -665 -805 -669 0 -2 98 -4 218 -4 l218 0
250 377 c283 427 268 403 257 402 -4 -1 -66 -48 -138 -106z"/>
<path d="M1417 1438 c-2 -7 -116 -182 -253 -388 -137 -206 -251 -379 -253
-384 -8 -18 344 267 919 746 l45 37 -226 1 c-173 0 -228 -3 -232 -12z"/>
</g>
</svg>
